<svg xmlns="http://www.w3.org/2000/svg" xmlns:xlink="http://www.w3.org/1999/xlink" id="Layer_1" data-name="Layer 1" version="1.1" viewBox="0 0 800 418"><defs id="defs9313"><clipPath id="clip-143"><path id="path61777" d="M636 585h144v205H636Zm0 0" clip-rule="nonzero"/></clipPath><clipPath id="clip-144"><path id="path61780" d="M827.836 607.234c-2.863-6.964-14.098-22.16-57.563-22.16-43.464 0-54.699 15.196-57.562 22.16a12.973 12.973 0 0 0-.965 4.938v37.941h64.719v11.649H675.457s-38.8-2.844-38.8 63.758c0 66.597 38.8 63.757 38.8 63.757h21.082l3.32.016v-31.66c0-24.739 20.028-44.793 44.73-44.793h55.141c16.055 0 29.07-13.035 29.07-29.113v-71.555a12.898 12.898 0 0 0-.964-4.938zm-89.352 27.246c-6.433 0-11.648-5.222-11.648-11.664 0-6.445 5.219-11.668 11.652-11.664 6.434 0 11.649 5.223 11.649 11.664 0 6.446-5.215 11.668-11.653 11.664zm0 0" clip-rule="nonzero"/></clipPath><clipPath id="clip-145"><path id="path61783" d="M636 585h156v205H636Zm0 0" clip-rule="nonzero"/></clipPath><clipPath id="clip-146"><path id="path61786" d="M827.836 607.234c-2.863-6.964-14.098-22.16-57.563-22.16-43.464 0-54.699 15.196-57.562 22.16a12.973 12.973 0 0 0-.965 4.938v37.941h64.719v11.649H675.457s-38.8-2.844-38.8 63.758c0 66.597 38.8 63.757 38.8 63.757h21.082l3.32.016v-31.66c0-24.739 20.028-44.793 44.73-44.793h55.141c16.055 0 29.07-13.035 29.07-29.113v-71.555a12.898 12.898 0 0 0-.964-4.938zm-89.352 27.246c-6.433 0-11.648-5.222-11.648-11.664 0-6.445 5.219-11.668 11.652-11.664 6.434 0 11.649 5.223 11.649 11.664 0 6.446-5.215 11.668-11.653 11.664zm0 0" clip-rule="nonzero"/></clipPath><clipPath id="clip-147"><path id="path61789" d="M636 585h169v205H636Zm0 0" clip-rule="nonzero"/></clipPath><clipPath id="clip-148"><path id="path61792" d="M827.836 607.234c-2.863-6.964-14.098-22.16-57.563-22.16-43.464 0-54.699 15.196-57.562 22.16a12.973 12.973 0 0 0-.965 4.938v37.941h64.719v11.649H675.457s-38.8-2.844-38.8 63.758c0 66.597 38.8 63.757 38.8 63.757h21.082l3.32.016v-31.66c0-24.739 20.028-44.793 44.73-44.793h55.141c16.055 0 29.07-13.035 29.07-29.113v-71.555a12.898 12.898 0 0 0-.964-4.938zm-89.352 27.246c-6.433 0-11.648-5.222-11.648-11.664 0-6.445 5.219-11.668 11.652-11.664 6.434 0 11.649 5.223 11.649 11.664 0 6.446-5.215 11.668-11.653 11.664zm0 0" clip-rule="nonzero"/></clipPath><clipPath id="clip-149"><path id="path61795" d="M636 585h181v205H636Zm0 0" clip-rule="nonzero"/></clipPath><clipPath id="clip-150"><path id="path61798" d="M827.836 607.234c-2.863-6.964-14.098-22.16-57.563-22.16-43.464 0-54.699 15.196-57.562 22.16a12.973 12.973 0 0 0-.965 4.938v37.941h64.719v11.649H675.457s-38.8-2.844-38.8 63.758c0 66.597 38.8 63.757 38.8 63.757h21.082l3.32.016v-31.66c0-24.739 20.028-44.793 44.73-44.793h55.141c16.055 0 29.07-13.035 29.07-29.113v-71.555a12.898 12.898 0 0 0-.964-4.938zm-89.352 27.246c-6.433 0-11.648-5.222-11.648-11.664 0-6.445 5.219-11.668 11.652-11.664 6.434 0 11.649 5.223 11.649 11.664 0 6.446-5.215 11.668-11.653 11.664zm0 0" clip-rule="nonzero"/></clipPath><clipPath id="clip-152"><path id="path61804" d="M827.836 607.234c-2.863-6.964-14.098-22.16-57.563-22.16-43.464 0-54.699 15.196-57.562 22.16a12.973 12.973 0 0 0-.965 4.938v37.941h64.719v11.649H675.457s-38.8-2.844-38.8 63.758c0 66.597 38.8 63.757 38.8 63.757h21.082l3.32.016v-31.66c0-24.739 20.028-44.793 44.73-44.793h55.141c16.055 0 29.07-13.035 29.07-29.113v-71.555a12.898 12.898 0 0 0-.964-4.938zm-89.352 27.246c-6.433 0-11.648-5.222-11.648-11.664 0-6.445 5.219-11.668 11.652-11.664 6.434 0 11.649 5.223 11.649 11.664 0 6.446-5.215 11.668-11.653 11.664zm0 0" clip-rule="nonzero"/></clipPath><clipPath id="clip-143-4"><path id="path61777-7" d="M636 585h144v205H636Zm0 0" clip-rule="nonzero"/></clipPath><clipPath id="clip-144-4"><path id="path61780-4" d="M827.836 607.234c-2.863-6.964-14.098-22.16-57.563-22.16-43.464 0-54.699 15.196-57.562 22.16a12.973 12.973 0 0 0-.965 4.938v37.941h64.719v11.649H675.457s-38.8-2.844-38.8 63.758c0 66.597 38.8 63.757 38.8 63.757h21.082l3.32.016v-31.66c0-24.739 20.028-44.793 44.73-44.793h55.141c16.055 0 29.07-13.035 29.07-29.113v-71.555a12.898 12.898 0 0 0-.964-4.938zm-89.352 27.246c-6.433 0-11.648-5.222-11.648-11.664 0-6.445 5.219-11.668 11.652-11.664 6.434 0 11.649 5.223 11.649 11.664 0 6.446-5.215 11.668-11.653 11.664zm0 0" clip-rule="nonzero"/></clipPath><clipPath id="clip-145-3"><path id="path61783-0" d="M636 585h156v205H636Zm0 0" clip-rule="nonzero"/></clipPath><clipPath id="clip-146-7"><path id="path61786-8" d="M827.836 607.234c-2.863-6.964-14.098-22.16-57.563-22.16-43.464 0-54.699 15.196-57.562 22.16a12.973 12.973 0 0 0-.965 4.938v37.941h64.719v11.649H675.457s-38.8-2.844-38.8 63.758c0 66.597 38.8 63.757 38.8 63.757h21.082l3.32.016v-31.66c0-24.739 20.028-44.793 44.73-44.793h55.141c16.055 0 29.07-13.035 29.07-29.113v-71.555a12.898 12.898 0 0 0-.964-4.938zm-89.352 27.246c-6.433 0-11.648-5.222-11.648-11.664 0-6.445 5.219-11.668 11.652-11.664 6.434 0 11.649 5.223 11.649 11.664 0 6.446-5.215 11.668-11.653 11.664zm0 0" clip-rule="nonzero"/></clipPath><clipPath id="clip-147-6"><path id="path61789-8" d="M636 585h169v205H636Zm0 0" clip-rule="nonzero"/></clipPath><clipPath id="clip-148-8"><path id="path61792-4" d="M827.836 607.234c-2.863-6.964-14.098-22.16-57.563-22.16-43.464 0-54.699 15.196-57.562 22.16a12.973 12.973 0 0 0-.965 4.938v37.941h64.719v11.649H675.457s-38.8-2.844-38.8 63.758c0 66.597 38.8 63.757 38.8 63.757h21.082l3.32.016v-31.66c0-24.739 20.028-44.793 44.73-44.793h55.141c16.055 0 29.07-13.035 29.07-29.113v-71.555a12.898 12.898 0 0 0-.964-4.938zm-89.352 27.246c-6.433 0-11.648-5.222-11.648-11.664 0-6.445 5.219-11.668 11.652-11.664 6.434 0 11.649 5.223 11.649 11.664 0 6.446-5.215 11.668-11.653 11.664zm0 0" clip-rule="nonzero"/></clipPath><clipPath id="clip-149-3"><path id="path61795-1" d="M636 585h181v205H636Zm0 0" clip-rule="nonzero"/></clipPath><clipPath id="clip-150-4"><path id="path61798-9" d="M827.836 607.234c-2.863-6.964-14.098-22.16-57.563-22.16-43.464 0-54.699 15.196-57.562 22.16a12.973 12.973 0 0 0-.965 4.938v37.941h64.719v11.649H675.457s-38.8-2.844-38.8 63.758c0 66.597 38.8 63.757 38.8 63.757h21.082l3.32.016v-31.66c0-24.739 20.028-44.793 44.73-44.793h55.141c16.055 0 29.07-13.035 29.07-29.113v-71.555a12.898 12.898 0 0 0-.964-4.938zm-89.352 27.246c-6.433 0-11.648-5.222-11.648-11.664 0-6.445 5.219-11.668 11.652-11.664 6.434 0 11.649 5.223 11.649 11.664 0 6.446-5.215 11.668-11.653 11.664zm0 0" clip-rule="nonzero"/></clipPath><clipPath id="clip-151"><path id="path61801" d="M636 585h193v205H636Zm0 0" clip-rule="nonzero"/></clipPath><clipPath id="clip-152-2"><path id="path61804-0" d="M827.836 607.234c-2.863-6.964-14.098-22.16-57.563-22.16-43.464 0-54.699 15.196-57.562 22.16a12.973 12.973 0 0 0-.965 4.938v37.941h64.719v11.649H675.457s-38.8-2.844-38.8 63.758c0 66.597 38.8 63.757 38.8 63.757h21.082l3.32.016v-31.66c0-24.739 20.028-44.793 44.73-44.793h55.141c16.055 0 29.07-13.035 29.07-29.113v-71.555a12.898 12.898 0 0 0-.964-4.938zm-89.352 27.246c-6.433 0-11.648-5.222-11.648-11.664 0-6.445 5.219-11.668 11.652-11.664 6.434 0 11.649 5.223 11.649 11.664 0 6.446-5.215 11.668-11.653 11.664zm0 0" clip-rule="nonzero"/></clipPath><clipPath id="clip-152-2-6"><path id="path61804-0-6" d="M827.836 607.234c-2.863-6.964-14.098-22.16-57.563-22.16-43.464 0-54.699 15.196-57.562 22.16a12.973 12.973 0 0 0-.965 4.938v37.941h64.719v11.649H675.457s-38.8-2.844-38.8 63.758c0 66.597 38.8 63.757 38.8 63.757h21.082l3.32.016v-31.66c0-24.739 20.028-44.793 44.73-44.793h55.141c16.055 0 29.07-13.035 29.07-29.113v-71.555a12.898 12.898 0 0 0-.964-4.938zm-89.352 27.246c-6.433 0-11.648-5.222-11.648-11.664 0-6.445 5.219-11.668 11.652-11.664 6.434 0 11.649 5.223 11.649 11.664 0 6.446-5.215 11.668-11.653 11.664zm0 0" clip-rule="nonzero"/></clipPath><pattern xlink:href="#pattern66737" id="pattern67854" patternTransform="matrix(.6893 0 0 .6893 611.043 261.155)"/><pattern xlink:href="#pattern66737" id="pattern67234" patternTransform="matrix(.51485 -.02514 .02473 .50641 1226.79 597.853)"/><pattern xlink:href="#pattern66737" id="pattern66871" patternTransform="matrix(.48492 0 0 .49412 513.718 336.133)"/><pattern id="pattern66737" width="1043.687" height="235.595" patternTransform="translate(685.598 329.672)" patternUnits="userSpaceOnUse"><g id="g66735" transform="translate(-685.598 -329.672)"><path id="path64933" d="M687.202 563.664 919.59 331.275" style="fill:none;fill-opacity:.294118;stroke:#90d1f4;stroke-width:4.53543;stroke-linecap:butt;stroke-linejoin:miter;stroke-dasharray:none;stroke-opacity:1"/><use xlink:href="#path64933" id="use66584" x="0" y="0"/><use xlink:href="#path64933" id="use66586" x="0" y="0" transform="translate(16.492)"/><use xlink:href="#path64933" id="use66588" x="0" y="0" transform="translate(32.983)"/><use xlink:href="#path64933" id="use66590" x="0" y="0" transform="translate(49.475)"/><use xlink:href="#path64933" id="use66592" x="0" y="0" transform="translate(65.967)"/><use xlink:href="#path64933" id="use66594" x="0" y="0" transform="translate(82.458)"/><use xlink:href="#path64933" id="use66596" x="0" y="0" transform="translate(98.95)"/><use xlink:href="#path64933" id="use66598" x="0" y="0" transform="translate(115.442)"/><use xlink:href="#path64933" id="use66600" x="0" y="0" transform="translate(131.933)"/><use xlink:href="#path64933" id="use66602" x="0" y="0" transform="translate(148.425)"/><use xlink:href="#path64933" id="use66604" x="0" y="0" transform="translate(164.917)"/><use xlink:href="#path64933" id="use66606" x="0" y="0" transform="translate(181.408)"/><use xlink:href="#path64933" id="use66608" x="0" y="0" transform="translate(197.9)"/><use xlink:href="#path64933" id="use66610" x="0" y="0" transform="translate(214.392)"/><use xlink:href="#path64933" id="use66612" x="0" y="0" transform="translate(230.883)"/><use xlink:href="#path64933" id="use66614" x="0" y="0" transform="translate(247.375)"/><use xlink:href="#path64933" id="use66616" x="0" y="0" transform="translate(263.867)"/><use xlink:href="#path64933" id="use66618" x="0" y="0" transform="translate(280.358)"/><use xlink:href="#path64933" id="use66620" x="0" y="0" transform="translate(296.85)"/><use xlink:href="#path64933" id="use66622" x="0" y="0" transform="translate(313.342)"/><use xlink:href="#path64933" id="use66624" x="0" y="0" transform="translate(329.833)"/><use xlink:href="#path64933" id="use66626" x="0" y="0" transform="translate(346.325)"/><use xlink:href="#path64933" id="use66628" x="0" y="0" transform="translate(362.817)"/><use xlink:href="#path64933" id="use66630" x="0" y="0" transform="translate(379.308)"/><use xlink:href="#path64933" id="use66632" x="0" y="0" transform="translate(395.8)"/><use xlink:href="#path64933" id="use66634" x="0" y="0" transform="translate(412.292)"/><use xlink:href="#path64933" id="use66636" x="0" y="0" transform="translate(428.783)"/><use xlink:href="#path64933" id="use66638" x="0" y="0" transform="translate(445.275)"/><use xlink:href="#path64933" id="use66640" x="0" y="0" transform="translate(461.767)"/><use xlink:href="#path64933" id="use66642" x="0" y="0" transform="translate(478.258)"/><use xlink:href="#path64933" id="use66644" x="0" y="0" transform="translate(494.75)"/><use xlink:href="#path64933" id="use66646" x="0" y="0" transform="translate(511.241)"/><use xlink:href="#path64933" id="use66648" x="0" y="0" transform="translate(527.733)"/><use xlink:href="#path64933" id="use66650" x="0" y="0" transform="translate(544.225)"/><use xlink:href="#path64933" id="use66652" x="0" y="0" transform="translate(560.716)"/><use xlink:href="#path64933" id="use66654" x="0" y="0" transform="translate(577.208)"/><use xlink:href="#path64933" id="use66656" x="0" y="0" transform="translate(593.7)"/><use xlink:href="#path64933" id="use66658" x="0" y="0" transform="translate(610.191)"/><use xlink:href="#path64933" id="use66660" x="0" y="0" transform="translate(626.683)"/><use xlink:href="#path64933" id="use66662" x="0" y="0" transform="translate(643.175)"/><use xlink:href="#path64933" id="use66664" x="0" y="0" transform="translate(659.666)"/><use xlink:href="#path64933" id="use66666" x="0" y="0" transform="translate(676.158)"/><use xlink:href="#path64933" id="use66668" x="0" y="0" transform="translate(692.65)"/><use xlink:href="#path64933" id="use66670" x="0" y="0" transform="translate(709.141)"/><use xlink:href="#path64933" id="use66672" x="0" y="0" transform="translate(725.633)"/><use xlink:href="#path64933" id="use66674" x="0" y="0" transform="translate(742.125)"/><use xlink:href="#path64933" id="use66676" x="0" y="0" transform="translate(758.616)"/><use xlink:href="#path64933" id="use66678" x="0" y="0" transform="translate(775.108)"/><use xlink:href="#path64933" id="use66680" x="0" y="0" transform="translate(791.6)"/><use xlink:href="#path64933" id="use66682" x="0" y="0" transform="translate(808.091)"/></g></pattern><style id="style9299">.cls-3{fill:#49a5f3}</style></defs><path id="path67849" d="M106.72 126.314c-3.94.052-7.744.28-11.665.824-6.472.928-13.036 2.62-18.49 6.362-2.927 2.063-5.612 4.846-6.612 8.367-.447 2.01-.154 4.088-.238 6.128v20.585h42.85v8.5c-22.62.01-45.238-.016-67.857.018-5.288.117-10.424 2.48-14.072 6.29-5.087 5.075-7.745 12.039-9.15 18.966-.792 3.866-1.204 7.968-1.382 11.802a110.292 110.292 0 0 0 0 9.451c.568 12.454 3.492 27.12 14.958 34.29 3.457 2.057 7.52 3.019 11.531 2.826l14.458.01c.019-7.257-.038-14.515.028-21.771.292-8.672 4.608-17.083 11.448-22.413 5.484-4.37 12.54-6.647 19.54-6.436 12.118-.014 24.236.03 36.354-.022 6.424-.234 12.538-4.054 15.62-9.685 1.83-3.213 2.539-6.956 2.383-10.626-.011-15.486.022-30.973-.017-46.458-.234-3.22-2.341-5.948-4.625-8.07-4.537-4.044-10.453-6.105-16.308-7.354-3.709-.784-7.805-1.24-11.597-1.44a112.89 112.89 0 0 0-7.156-.144z" style="fill:#fff;fill-opacity:1;stroke:#4ea8f1;stroke-opacity:1;stroke-width:3;stroke-dasharray:none"/><path id="path67486" d="M106.803 130.314c-7.682.138-15.514.855-22.72 3.693-3.547 1.464-7.05 3.532-9.263 6.753-.888 1.263-1.245 2.813-1.117 4.34.025 6.494.01 12.987.012 19.48h42.85v16.5c-24.076.014-48.153-.04-72.227.046-4.964.224-9.539 3.042-12.517 6.935-3.534 4.445-5.396 9.96-6.49 15.468-.083.472-.25 1.302-.34 1.916a75.799 75.799 0 0 0-.716 6.067c-.426 5.866-.365 11.935.295 17.85.832 6.92 2.546 14.006 6.75 19.702 2.765 3.73 6.778 6.767 11.461 7.452 2.986.42 6.012.122 9.016.209l5.256.003c.033-6.44-.102-12.884.11-19.32.829-11.062 7.482-21.492 17.179-26.887 5.674-3.222 12.273-4.68 18.777-4.408 11.954-.026 23.911.068 35.864-.068 6.34-.531 12.003-5.603 13.142-11.879.561-3.199.203-6.46.3-9.688-.01-13.697.033-27.398-.044-41.093-.463-2.677-2.583-4.667-4.638-6.255-4.994-3.643-11.165-5.13-17.184-6.02a81.255 81.255 0 0 0-6.164-.612c-.877-.041-1.715-.1-2.493-.119-1.699-.061-3.4-.074-5.1-.065z" style="fill:url(#pattern67854);fill-opacity:1;stroke:none;stroke-width:3;stroke-dasharray:none;stroke-opacity:1"/><path id="path66869" d="M599.762 240.533c.038 3.627.817 7.248 2.386 10.524a24.498 24.498 0 0 0 8.895 10.098 24.55 24.55 0 0 0 12.804 3.866c13.47.047 26.943.007 40.415.02 27.259-.006 54.519.013 81.778-.01 4.276-.056 8.54-1.203 12.222-3.39a24.488 24.488 0 0 0 9.332-9.854c1.779-3.43 2.697-7.28 2.74-11.141-.16-.42-1.12-.067-1.594-.183H599.762z" style="fill:url(#pattern66871);fill-opacity:1;stroke:none"/><g id="g67249" transform="matrix(1.37183 0 0 1.37183 -987.437 -30.388)"><path id="path4965" d="M449.767 222.267a7.607 7.607 0 0 0-3.498.853l-15.137-15.136h-14.91v-6.676h14.91l15.137-15.135a7.665 7.665 0 1 0-3.525-3.754L429 196.163H416.22v-6.78h7.828l10.723-10.408v-21.862a7.662 7.662 0 1 0-5.145 0v19.685l-7.664 7.44h-6.212l-14.252-14.636-14.25 14.636h-6.213l-7.664-7.44v-19.685a7.663 7.663 0 1 0-5.145 0v21.862l10.722 10.408h7.83v6.78h-12.78l-13.744-13.744a7.69 7.69 0 1 0-3.524 3.754l15.137 15.135h14.91v6.676h-14.91L356.73 223.12a7.665 7.665 0 1 0 3.524 3.754L374 213.129h12.778v6.78h-7.829l-10.722 10.409v21.862a7.662 7.662 0 1 0 5.145 0v-19.685l7.664-7.44h6.23l14.233 15.773 14.235-15.773h6.229l7.664 7.44v19.685a7.662 7.662 0 1 0 5.146 0v-21.862l-10.724-10.408h-7.828v-6.78H429l13.744 13.745a7.66 7.66 0 1 0 7.022-4.607z" class="UnoptimicedTransforms" style="fill:#64b5f6;stroke-width:.532961" transform="translate(610.425 -31.281)"/><path id="path66939" d="M617.389 105.57a7.607 7.607 0 0 0-3.498.853l-15.137-15.136h-14.91v-6.675h14.91l15.137-15.136a7.665 7.665 0 1 0-3.525-3.754l-13.744 13.744h-12.779v-6.78h7.828l10.723-10.408V40.416a7.662 7.662 0 1 0-5.145 0v19.685l-7.664 7.44h-6.212l-14.251-14.636L554.87 67.54h-6.213l-7.664-7.44V40.416a7.663 7.663 0 1 0-5.145 0v21.862l10.723 10.408h7.829v6.78h-12.78l-13.743-13.744a7.69 7.69 0 1 0-3.525 3.754l15.137 15.136h14.91v6.675h-14.91l-15.137 15.136a7.665 7.665 0 1 0 3.525 3.754l13.744-13.745H554.4v6.781h-7.83l-10.722 10.408v21.862a7.662 7.662 0 1 0 5.145 0v-19.685l7.664-7.44h6.23l14.234 15.774 14.234-15.773h6.23l7.664 7.44v19.684a7.662 7.662 0 1 0 5.145 0V113.62l-10.724-10.408h-7.828v-6.78h12.779l13.744 13.745a7.66 7.66 0 1 0 7.023-4.607z" class="UnoptimicedTransforms" style="fill:none;fill-opacity:1" transform="translate(442.802 85.416)"/><path id="path66961" d="M1060.17 201.164a2.517 2.517 0 1 1 2.516-2.517 2.52 2.52 0 0 1-2.516 2.517z" style="fill:#fff;stroke-width:.532961"/><path id="path67206" d="m1021.479 191.254-9.577 10.611-9.575-10.611V155.53l9.576-9.835 9.576 9.835z" style="fill:#fff;fill-opacity:1;stroke-width:.532961"/><path id="path66959" d="M1004.326 156.342v34.144l7.576 8.395 7.576-8.395v-34.144l-7.576-7.78-7.576 7.78z" style="fill:url(#pattern67234);fill-opacity:1;stroke-width:.532961"/><path id="path66957" d="M1042.603 230.623a2.517 2.517 0 1 1 2.517-2.517 2.52 2.52 0 0 1-2.517 2.517z" style="fill:#fff;stroke-width:.532961"/><path id="path66955" d="M981.203 230.623a2.517 2.517 0 1 1 2.516-2.517 2.52 2.52 0 0 1-2.516 2.517z" style="fill:#fff;stroke-width:.532961"/><path id="path66953" d="M963.636 201.164a2.517 2.517 0 1 1 2.517-2.517 2.52 2.52 0 0 1-2.517 2.517z" style="fill:#fff;stroke-width:.532961"/><path id="path66951" d="M963.636 150.599a2.517 2.517 0 1 1 2.517-2.517 2.52 2.52 0 0 1-2.517 2.517z" style="fill:#fff;stroke-width:.532961"/><path id="path66949" d="M981.203 116.105a2.517 2.517 0 1 1-2.518 2.517 2.52 2.52 0 0 1 2.518-2.517z" style="fill:#fff;stroke-width:.532961"/><path id="path66947" d="M1042.603 116.105a2.517 2.517 0 1 1-2.517 2.517 2.52 2.52 0 0 1 2.517-2.517z" style="fill:#fff;stroke-width:.532961"/><path id="path66945" d="M1060.17 145.565a2.517 2.517 0 1 1-2.517 2.517 2.52 2.52 0 0 1 2.517-2.517z" style="fill:#fff;stroke-width:.532961"/></g><g id="g52403" transform="matrix(.86647 0 0 .86647 75.053 33.638)"><path id="path9659" d="M291.12 214.29a1.27 1.27 0 0 1-1.27 1.27H160.32a1.24 1.24 0 0 1-1.25-1.25 1.24 1.24 0 0 1 1.25-1.25h129.53a1.23 1.23 0 0 1 1.27 1.23z" class="cls-3" clip-path="none"/><path id="path9661" d="M291.71 181.1a1.27 1.27 0 0 1-1.27 1.27h-130.7a1.27 1.27 0 0 1-1.27-1.27 1.27 1.27 0 0 1 1.27-1.27h130.7a1.27 1.27 0 0 1 1.27 1.27z" class="cls-3" clip-path="none"/><path id="path9663" d="M198.39 174.08h-24.72a1.27 1.27 0 1 1 0-2.54h24.72a1.26 1.26 0 0 1 1.26 1.27 1.28 1.28 0 0 1-1.26 1.27z" class="cls-3" clip-path="none"/><path id="path9665" d="M274.19 174.08h-24.71a1.27 1.27 0 1 1 0-2.54h24.71a1.27 1.27 0 0 1 1.27 1.27 1.28 1.28 0 0 1-1.27 1.27z" class="cls-3" clip-path="none"/><path id="path9667" d="M236.29 174.08h-24.71a1.27 1.27 0 1 1 0-2.54h24.71a1.27 1.27 0 0 1 1.27 1.27 1.28 1.28 0 0 1-1.27 1.27z" class="cls-3" clip-path="none"/><path id="path9669" d="M198.39 223.18h-24.72a1.27 1.27 0 1 1 0-2.54h24.72a1.26 1.26 0 0 1 1.26 1.27 1.28 1.28 0 0 1-1.26 1.27z" class="cls-3" clip-path="none"/><path id="path9671" d="M274.19 223.18h-24.71a1.27 1.27 0 1 1 0-2.54h24.71a1.26 1.26 0 0 1 1.27 1.27 1.28 1.28 0 0 1-1.27 1.27z" class="cls-3" clip-path="none"/><path id="path9673" d="M236.29 223.18h-24.71a1.27 1.27 0 0 1 0-2.54h24.71a1.27 1.27 0 0 1 1.27 1.27 1.28 1.28 0 0 1-1.27 1.27z" class="cls-3" clip-path="none"/><path id="path9675" d="M250.76 193.93h-1.27a2.22 2.22 0 0 0-2.21 2.21v5.06a2.22 2.22 0 0 0 2.21 2.21h1.27a2.22 2.22 0 0 0 2.24-2.21v-5.06a2.22 2.22 0 0 0-2.24-2.21zm.32 7.27a.31.31 0 0 1-.32.31h-1.27a.31.31 0 0 1-.31-.31v-5.06a.31.31 0 0 1 .31-.32h1.27a.32.32 0 0 1 .32.32z" class="cls-3" clip-path="none"/><path id="path9677" d="m236.67 197.16-.92-.19 1.32-6.51a.94.94 0 0 0-.75-1.11l-1.86-.38a.95.95 0 1 0-.37 1.86l.93.19-1.14 5.59-.92-.19a.95.95 0 1 0-.36 1.86l3.72.75a.94.94 0 0 0 1.11-.75 1 1 0 0 0-.76-1.12z" class="cls-3" clip-path="none"/><path id="path9679" d="m281 194.17-1.25.19a2.22 2.22 0 0 0-1.85 2.53l.78 5a2.22 2.22 0 0 0 2.53 1.84l1.25-.19a2.22 2.22 0 0 0 1.85-2.52l-.79-5a2.2 2.2 0 0 0-2.52-1.85Zm1.43 7.14a.32.32 0 0 1-.27.36l-1.25.19a.3.3 0 0 1-.36-.26l-.79-5a.32.32 0 0 1 .26-.37l1.26-.19a.32.32 0 0 1 .36.26z" class="cls-3" clip-path="none"/><path id="path9681" d="m267.7 197.37-.92-.22 1.53-6.46a1 1 0 0 0-.7-1.15l-1.84-.43a.95.95 0 1 0-.46 1.84l.93.23-1.33 5.53-.92-.22a.95.95 0 1 0-.45 1.84l3.69.89a1 1 0 0 0 1.15-.7.93.93 0 0 0-.68-1.15z" class="cls-3" clip-path="none"/><path id="path9683" d="m187.42 193.93-1.22.35a2.19 2.19 0 0 0-1.51 2.73l1.39 4.85a2.21 2.21 0 0 0 2.73 1.52L190 203a2.21 2.21 0 0 0 1.51-2.73l-1.39-4.86a2.21 2.21 0 0 0-2.7-1.48zm2.31 6.91a.3.3 0 0 1-.21.38l-1.21.35a.31.31 0 0 1-.39-.21l-1.39-4.86a.3.3 0 0 1 .21-.38l1.22-.35a.3.3 0 0 1 .38.21z" class="cls-3" clip-path="none"/><path id="path9685" d="M174.52 198.59h-1v-6.65a.94.94 0 0 0-.95-.95h-1.9a1 1 0 1 0 0 1.91h1v5.69h-1a1 1 0 0 0-1 1 1 1 0 0 0 1 1h3.79a1 1 0 0 0 1-1 .94.94 0 0 0-.94-1z" class="cls-3" clip-path="none"/><path id="path9687" d="m204.84 191.11-1.25-.16a2.22 2.22 0 0 0-2.48 1.92l-.62 5a2.22 2.22 0 0 0 1.91 2.48l1.25.15a2.22 2.22 0 0 0 2.48-1.91l.62-5a2.2 2.2 0 0 0-1.91-2.48zm-.59 7.25a.31.31 0 0 1-.35.28l-1.25-.15a.31.31 0 0 1-.28-.35l.62-5a.31.31 0 0 1 .35-.28l1.25.16a.3.3 0 0 1 .28.35z" class="cls-3" clip-path="none"/><path id="path9689" d="M221 201.74h-1v-6.63a1 1 0 0 0-1-1h-1.9a1 1 0 1 0 0 1.92h1v5.69h-1a1 1 0 0 0-1 1 .94.94 0 0 0 1 .95h3.9a.94.94 0 0 0 1-.95 1 1 0 0 0-1-.98z" class="cls-3" clip-path="none"/></g><g id="g52808" transform="matrix(.86647 0 0 .86647 35.195 33.638)"><path id="path9691" d="M639.89 214.29a1.27 1.27 0 0 1-1.27 1.27H509.08a1.25 1.25 0 0 1-1.25-1.25 1.24 1.24 0 0 1 1.25-1.25h129.54a1.23 1.23 0 0 1 1.27 1.23z" class="cls-3" clip-path="none"/><path id="path9693" d="M640.48 181.1a1.27 1.27 0 0 1-1.27 1.27h-130.7a1.27 1.27 0 0 1-1.27-1.27 1.27 1.27 0 0 1 1.27-1.27h130.7a1.27 1.27 0 0 1 1.27 1.27z" class="cls-3" clip-path="none"/><path id="path9695" d="M547.15 174.08h-24.71a1.27 1.27 0 1 1 0-2.54h24.71a1.27 1.27 0 0 1 0 2.54z" class="cls-3" clip-path="none"/><path id="path9697" d="M623 174.08h-24.75a1.27 1.27 0 1 1 0-2.54H623a1.27 1.27 0 0 1 1.27 1.27 1.28 1.28 0 0 1-1.27 1.27z" class="cls-3" clip-path="none"/><path id="path9699" d="M585.05 174.08h-24.71a1.27 1.27 0 1 1 0-2.54h24.71a1.27 1.27 0 0 1 1.27 1.27 1.28 1.28 0 0 1-1.27 1.27z" class="cls-3" clip-path="none"/><path id="path9701" d="M547.15 223.18h-24.71a1.27 1.27 0 1 1 0-2.54h24.71a1.27 1.27 0 0 1 1.27 1.27 1.28 1.28 0 0 1-1.27 1.27z" class="cls-3" clip-path="none"/><path id="path9703" d="M623 223.18h-24.75a1.27 1.27 0 1 1 0-2.54H623a1.27 1.27 0 0 1 1.27 1.27 1.28 1.28 0 0 1-1.27 1.27z" class="cls-3" clip-path="none"/><path id="path9705" d="M585.05 223.18h-24.71a1.27 1.27 0 1 1 0-2.54h24.71a1.26 1.26 0 0 1 1.27 1.27 1.28 1.28 0 0 1-1.27 1.27z" class="cls-3" clip-path="none"/><path id="path9707" d="M599.53 193.93h-1.27a2.21 2.21 0 0 0-2.21 2.21v5.06a2.21 2.21 0 0 0 2.21 2.21h1.27a2.21 2.21 0 0 0 2.21-2.21v-5.06a2.21 2.21 0 0 0-2.21-2.21zm.31 7.27a.31.31 0 0 1-.31.31h-1.27a.31.31 0 0 1-.31-.31v-5.06a.31.31 0 0 1 .31-.32h1.27a.31.31 0 0 1 .31.32z" class="cls-3" clip-path="none"/><path id="path9709" d="m585.43 197.16-.92-.19 1.32-6.51a.93.93 0 0 0-.74-1.11l-1.87-.38a.93.93 0 0 0-1.11.75.94.94 0 0 0 .75 1.11l.92.19-1.13 5.59-.92-.19a.95.95 0 1 0-.37 1.86l3.73.75a.94.94 0 0 0 1.11-.75 1 1 0 0 0-.77-1.12z" class="cls-3" clip-path="none"/><path id="path9711" d="m629.79 194.17-1.25.19a2.22 2.22 0 0 0-1.84 2.53l.78 5a2.2 2.2 0 0 0 2.52 1.84l1.26-.19a2.21 2.21 0 0 0 1.84-2.54l-.78-5a2.21 2.21 0 0 0-2.53-1.83zm1.43 7.14a.31.31 0 0 1-.26.36l-1.25.19a.31.31 0 0 1-.37-.26l-.78-5a.32.32 0 0 1 .26-.37l1.25-.19a.32.32 0 0 1 .37.26z" class="cls-3" clip-path="none"/><path id="path9713" d="m616.46 197.37-.92-.22 1.53-6.46a1 1 0 0 0-.69-1.15l-1.85-.43a.95.95 0 1 0-.45 1.84l.92.23-1.32 5.53-.92-.22a.95.95 0 0 0-.46 1.84l3.69.89a1 1 0 0 0 1.15-.7.92.92 0 0 0-.68-1.15z" class="cls-3" clip-path="none"/><path id="path9715" d="m536.18 193.93-1.21.35a2.2 2.2 0 0 0-1.52 2.73l1.39 4.85a2.22 2.22 0 0 0 2.74 1.52l1.21-.35a2.2 2.2 0 0 0 1.52-2.73l-1.39-4.86a2.22 2.22 0 0 0-2.74-1.51zm2.32 6.91a.3.3 0 0 1-.21.38l-1.22.35a.3.3 0 0 1-.38-.21l-1.39-4.86a.29.29 0 0 1 .21-.38l1.21-.35a.31.31 0 0 1 .39.21z" class="cls-3" clip-path="none"/><path id="path9717" d="M523.29 198.59h-1v-6.65a1 1 0 0 0-1-.95h-1.89a1 1 0 1 0 0 1.91h.95v5.69h-.95a1 1 0 1 0 0 1.92h3.79a1 1 0 0 0 1-1 .94.94 0 0 0-.9-.92z" class="cls-3" clip-path="none"/><path id="path9719" d="m553.6 191.11-1.25-.16a2.21 2.21 0 0 0-2.47 1.92l-.63 5a2.23 2.23 0 0 0 1.92 2.48l1.25.15a2.2 2.2 0 0 0 2.47-1.91l.63-5a2.21 2.21 0 0 0-1.92-2.48zm-.59 7.25a.3.3 0 0 1-.35.28l-1.25-.15a.33.33 0 0 1-.28-.35l.63-5a.31.31 0 0 1 .35-.28l1.25.16a.31.31 0 0 1 .28.35z" class="cls-3" clip-path="none"/><path id="path9721" d="M569.79 201.74h-1v-6.63a1 1 0 0 0-1-1H566a1 1 0 1 0 0 1.92h.95v5.69H566a1 1 0 0 0-1 1 .94.94 0 0 0 1 .95h3.79a1 1 0 0 0 0-1.93z" class="cls-3" clip-path="none"/></g><path id="path9459" d="M639.422 298.961v-9.8a.762.762 0 0 1 .762-.771h89.732a.762.762 0 0 1 .763.771v9.8a.762.762 0 0 1-.763.771h-89.732a.762.762 0 0 1-.762-.771zm89.732-9.037h-88.207v8.275h88.207z" class="cls-3" clip-path="none" style="stroke-width:.866474"/><path id="path9461" d="M598.906 152.718h-.13a.762.762 0 0 1-.624-.867 26.332 26.332 0 0 1 26.055-22.095h121.687a26.34 26.34 0 0 1 26.055 22.095.659.659 0 0 1 0 .13.762.762 0 0 1-.762.763zm171.37-1.525a24.833 24.833 0 0 0-24.469-19.93h-121.6a24.79 24.79 0 0 0-24.383 19.93z" class="cls-3" clip-path="none" style="stroke-width:.866474"/><path id="path9463" d="M671.715 252.033a.771.771 0 0 1 .771-.771h25.128a.771.771 0 1 1 0 1.533h-25.128a.762.762 0 0 1-.77-.762z" class="cls-3" clip-path="none" style="stroke-width:.866474;stroke:#fff;paint-order:stroke fill markers"/><path id="path9465" d="M597.762 240.587v-1.36a.754.754 0 0 1 .762-.763h173.052a.754.754 0 0 1 .763.762v1.36a26.48 26.48 0 0 1-26.445 26.454H624.207a26.48 26.48 0 0 1-26.445-26.453zm1.525-.598v.598a24.946 24.946 0 0 0 24.92 24.92h121.687a24.946 24.946 0 0 0 24.937-24.92v-.598z" class="cls-3" clip-path="none" style="stroke-width:.86551181;stroke-dasharray:none;fill:#56abf1"/><path id="path9469" d="M770.831 234.868v-78.685a.762.762 0 1 1 1.525 0v78.685a.762.762 0 0 1-1.525 0z" class="cls-3" clip-path="none" style="stroke-width:.866474"/><path id="path9471" d="M667.72 289.161V269.32a.762.762 0 0 1 1.526 0v19.842a.762.762 0 0 1-1.525 0z" class="cls-3" clip-path="none" style="stroke-width:.866474"/><path id="path9473" d="M700.88 289.161V269.32a.762.762 0 0 1 1.526 0v19.842a.762.762 0 0 1-1.525 0z" class="cls-3" clip-path="none" style="stroke-width:.866474"/><path id="path9475" d="M598.906 151.955h172.29a25.665 25.665 0 0 0-25.302-21.454H624.215a25.656 25.656 0 0 0-25.31 21.454z" class="cls-3" clip-path="none" style="stroke-width:.866474"/><path id="path9307" d="M598.906 151.955h172.29a25.665 25.665 0 0 0-25.302-21.454H624.215a25.656 25.656 0 0 0-25.31 21.454z" class="cls-3" style="stroke-width:.866474"/><path id="path9310" d="M598.524 239.226v1.36a25.691 25.691 0 0 0 25.683 25.692h121.687a25.691 25.691 0 0 0 25.682-25.691v-1.36zm70.133 12.807a3.83 3.83 0 0 1 3.83-3.83h25.127a3.83 3.83 0 0 1 0 7.65h-25.128a3.821 3.821 0 0 1-3.83-3.82z" style="stroke-width:.866474;fill:none"/><path id="path9467" d="M597.762 235.25v-79.067a.762.762 0 0 1 1.525 0v79.066a.762.762 0 0 1-1.525 0z" class="cls-3" clip-path="none" style="stroke-width:.866474"/><path id="path9723" d="M742.61 206.638H627.37a10.476 10.476 0 0 1-10.468-10.467v-4.627a10.476 10.476 0 0 1 10.467-10.467H742.61a10.476 10.476 0 0 1 10.467 10.467v4.627a10.476 10.476 0 0 1-10.467 10.467zm-115.24-23.395a8.31 8.31 0 0 0-8.302 8.301v4.627a8.31 8.31 0 0 0 8.301 8.301H742.61a8.31 8.31 0 0 0 8.301-8.3v-4.628a8.31 8.31 0 0 0-8.3-8.3z" class="cls-3" clip-path="none" style="stroke-width:.866474"/><path id="path9725" d="M734.44 196.76a4.982 4.982 0 1 1 3.517-8.5 4.982 4.982 0 0 1-3.518 8.5zm0-8.352a3.37 3.37 0 0 0-2.392.987 3.38 3.38 0 0 0 0 4.775 3.38 3.38 0 0 0 4.774 0 3.38 3.38 0 0 0 0-4.775 3.37 3.37 0 0 0-2.383-.987z" class="cls-3" clip-path="none" style="stroke-width:.866474"/><path id="rect9727" d="M382.81 659.175h1.603v2.4h-1.603z" class="cls-3" clip-path="none" style="stroke-width:.866474" transform="rotate(-45.01)"/><path id="rect9729" d="M719.623 182.273h1.603v23.282h-1.603z" class="cls-3" clip-path="none" style="stroke-width:.866474"/><path id="path9731" d="M741.293 200.91a2.33 2.33 0 0 1-1.655-.684l-2.157-2.157a.806.806 0 0 1 0-1.135l2.157-2.132a.806.806 0 0 1 1.135 0l2.158 2.158a2.34 2.34 0 0 1 0 3.31 2.33 2.33 0 0 1-1.638.64zm-2.114-3.404 1.594 1.585a.737.737 0 0 0 1.04 0 .728.728 0 0 0 .217-.52.745.745 0 0 0-.217-.52l-1.594-1.585z" class="cls-3" clip-path="none" style="stroke-width:.866474"/><path id="path9733" d="M651.587 211.837a4.592 4.592 0 0 1-.398.52q-1.36 1.378-2.739 2.738a.737.737 0 0 1-1.204 0l-3.847-3.83c-.06-.06-.113-.138-.182-.225l-.208.2-1.733 1.732a.728.728 0 0 1-1.308-.294q-1.976-5.953-3.96-11.906a.702.702 0 0 1 .554-1.014.918.918 0 0 1 .373 0l11.966 3.986a.72.72 0 0 1 .295 1.265l-1.733 1.733a1.144 1.144 0 0 1-.217.139v.104a.953.953 0 0 1 .217.147l3.795 3.873a3.596 3.596 0 0 1 .372.503z" class="cls-3" clip-path="none" style="stroke-width:.866474"/><path id="path9735" d="M636.71 191.068a.866.866 0 0 1 .528.961v3.986a.71.71 0 0 1-.961.71.667.667 0 0 1-.46-.64v-4.333a.788.788 0 0 1 .52-.702z" class="cls-3" clip-path="none" style="stroke-width:.866474"/><path id="path9737" d="M634.24 197.289a.788.788 0 0 1-.398.641.702.702 0 0 1-.745 0 .598.598 0 0 1-.156-.138l-2.93-2.92a.728.728 0 0 1-.216-.78.71.71 0 0 1 1.161-.295 339.245 339.245 0 0 1 3.059 3.059 1.889 1.889 0 0 1 .225.433z" class="cls-3" clip-path="none" style="stroke-width:.866474"/><path id="path9739" d="M634.24 203.398a1.924 1.924 0 0 1-.242.459 332.84 332.84 0 0 1-3.024 3.032.714.714 0 1 1-.997-1.022l2.99-2.99a.72.72 0 0 1 .814-.164.788.788 0 0 1 .46.685z" class="cls-3" clip-path="none" style="stroke-width:.866474"/><path id="path9741" d="M643.286 194.386a1.612 1.612 0 0 1-.234.416c-.987 1.014-1.984 2.002-2.989 2.998a.71.71 0 1 1-1.005-1.005q1.49-1.508 2.99-2.99a.693.693 0 0 1 .814-.164.754.754 0 0 1 .424.745z" class="cls-3" clip-path="none" style="stroke-width:.866474"/><path id="path9743" d="M630.081 201.05h-2.019a.728.728 0 0 1-.814-.702.728.728 0 0 1 .797-.72h4.15a.72.72 0 1 1 0 1.421z" class="cls-3" clip-path="none" style="stroke-width:.866474"/><path id="path67500" d="M87.024 144.783c-3.375-.003-6.111 2.736-6.114 6.117 0 3.38 2.734 6.122 6.109 6.122a6.117 6.117 0 0 0 6.114-6.12 6.121 6.121 0 0 0-6.109-6.119z" style="stroke-width:.662102"/><path id="path67498" d="M87.024 160.231c-5.147.003-9.321-4.177-9.321-9.329 0-5.154 4.172-9.331 9.318-9.331 5.147 0 9.32 4.18 9.32 9.331-.009 5.15-4.175 9.324-9.317 9.33z" style="stroke-width:3;fill:#fff;stroke:#4ea8f1;stroke-opacity:1;stroke-dasharray:none"/><path id="path61897-8" fill="#4ea8f1" fill-opacity="1" fill-rule="nonzero" d="M111.338 307.665c-29.916 0-37.654-10.96-39.594-15.67a10.19 10.19 0 0 1-.76-3.882v-47.374c.013-11.528 9.344-20.867 20.856-20.88h36.506c15.464-.015 27.997-12.567 28.013-28.051v-20.965c0-.427.17-.838.473-1.138a1.66 1.66 0 0 1 1.14-.468l16.095.013a22.157 22.157 0 0 1 15.492 6.29c7.865 7.32 11.853 19.946 11.853 37.53 0 17.585-3.988 30.208-11.85 37.528a22.041 22.041 0 0 1-15.56 6.287l-65.157.003v4.503h41.244c.887 0 1.604.719 1.604 1.606v25.119c.005 1.329-.251 2.648-.758 3.882-1.937 4.707-9.675 15.668-39.597 15.668zM91.84 223.071c-9.743.01-17.636 7.915-17.65 17.668v47.376c-.002.91.174 1.813.518 2.659 1.694 4.112 8.649 13.68 36.63 13.68 27.984 0 34.942-9.568 36.636-13.68a6.949 6.949 0 0 0 .512-2.659v-23.512h-41.242a1.604 1.604 0 0 1-1.603-1.606v-7.713c0-.887.716-1.606 1.603-1.606h66.875a19.305 19.305 0 0 0 13.322-5.49c7.144-6.702 10.764-18.516 10.764-35.115 0-16.602-3.62-28.419-10.764-35.12a19.259 19.259 0 0 0-13.213-5.494c-.034.003-.075.003-.11.003l-14.552-.003v19.349c-.021 17.258-13.987 31.243-31.22 31.263zm40.546 67.328c-5.147 0-9.316-4.177-9.316-9.332 0-5.152 4.172-9.328 9.316-9.328 5.147 0 9.318 4.176 9.318 9.328-.005 5.152-4.174 9.327-9.318 9.332zm0-15.448a6.113 6.113 0 0 0-6.11 6.119c0 3.38 2.737 6.12 6.112 6.12a6.115 6.115 0 0 0 6.11-6.123 6.122 6.122 0 0 0-6.112-6.119zm0 0" style="stroke-width:.662102"/><path id="path67482" fill="#90d1f4" fill-opacity="1" fill-rule="nonzero" d="M44.763 262.735a22.535 22.535 0 0 1-14.91-6.3C21.988 249.113 18 236.485 18 218.897c0-17.584 3.988-30.208 11.85-37.53a22.121 22.121 0 0 1 15.557-6.282l65.158-.005v-4.5H69.318a1.605 1.605 0 0 1-1.603-1.607v-25.118a10.09 10.09 0 0 1 .76-3.882c1.94-4.707 9.678-15.666 39.594-15.666 29.919 0 37.657 10.959 39.594 15.668.507 1.231.766 2.55.76 3.88v47.376c-.01 11.528-9.339 20.87-20.85 20.882H91.067c-15.467.018-27.998 12.567-28.016 28.054v20.963c0 .426-.168.835-.473 1.138-.339.237-.73.398-1.138.465l-16.149-.01a7.808 7.808 0 0 1-.528.013zm.176-84.448a19.55 19.55 0 0 0-12.97 5.498c-7.144 6.696-10.762 18.51-10.762 35.115 0 16.604 3.618 28.42 10.762 35.12a19.236 19.236 0 0 0 13.21 5.493l14.07-.003.595.003v-19.346c.021-17.258 13.987-31.245 31.223-31.266h36.506c9.74-.013 17.633-7.917 17.646-17.67v-47.376a6.973 6.973 0 0 0-.517-2.657c-1.694-4.114-8.649-13.681-36.633-13.681-27.981 0-34.936 9.567-36.63 13.681a6.883 6.883 0 0 0-.517 2.657v23.515h41.246c.885 0 1.604.719 1.604 1.603v7.715c0 .887-.72 1.606-1.604 1.606H45.291c-.023 0-.145-.008-.35-.008zm42.085-18.056c-5.147.003-9.321-4.177-9.321-9.329 0-5.154 4.172-9.331 9.318-9.331 5.147 0 9.32 4.18 9.32 9.331-.009 5.15-4.175 9.324-9.317 9.33zm0-15.448c-3.375-.003-6.111 2.736-6.114 6.117 0 3.38 2.734 6.122 6.109 6.122a6.117 6.117 0 0 0 6.114-6.12 6.121 6.121 0 0 0-6.109-6.119zm0 0" style="stroke-width:.662102;fill:none"/></svg>